<svg width="17" height="16" viewBox="0 0 17 16" fill="none" xmlns="http://www.w3.org/2000/svg">
<g clip-path="url(#clip0_6_565)">
<path d="M8.10938 0.178101C8.54375 0.0218506 9.01875 0.0218506 9.45625 0.178101L15.4563 2.32185C16.25 2.60623 16.7812 3.35935 16.7812 4.20623V11.7937C16.7812 12.6375 16.25 13.3937 15.4531 13.6781L9.45312 15.8218C9.01875 15.9781 8.54375 15.9781 8.10625 15.8218L2.10625 13.6781C1.3125 13.3937 0.78125 12.6406 0.78125 11.7937V4.20623C0.78125 3.36248 1.3125 2.60623 2.10938 2.32185L8.10938 0.178101ZM8.78125 2.06248L3.35313 3.99998L8.78125 5.93748L14.2094 3.99998L8.78125 2.06248ZM9.78125 13.5812L14.7812 11.7969V5.92185L9.78125 7.70623V13.5812Z" fill="white"/>
</g>
<defs>
<clipPath id="clip0_6_565">
<path d="M0.78125 0H16.7812V16H0.78125V0Z" fill="white"/>
</clipPath>
</defs>
</svg>
