<svg width="15" height="14" viewBox="0 0 15 14" fill="none" xmlns="http://www.w3.org/2000/svg">
<path d="M11.1406 6C12.7969 6 14.1406 4.65625 14.1406 3C14.1406 1.34375 12.7969 0 11.1406 0C9.48438 0 8.14062 1.34375 8.14062 3C8.14062 3.125 8.14688 3.25 8.1625 3.37187L5.22188 4.84062C4.68438 4.31875 3.95 4 3.14062 4C1.48438 4 0.140625 5.34375 0.140625 7C0.140625 8.65625 1.48438 10 3.14062 10C3.95 10 4.68438 9.68125 5.22188 9.15938L8.1625 10.6281C8.14688 10.75 8.14062 10.8719 8.14062 11C8.14062 12.6562 9.48438 14 11.1406 14C12.7969 14 14.1406 12.6562 14.1406 11C14.1406 9.34375 12.7969 8 11.1406 8C10.3313 8 9.59688 8.31875 9.05937 8.84062L6.11875 7.37187C6.13438 7.25 6.14062 7.12813 6.14062 7C6.14062 6.87187 6.13438 6.75 6.11875 6.62813L9.05937 5.15938C9.59688 5.68125 10.3313 6 11.1406 6Z" fill="white"/>
</svg>
